<?xml version="1.0" encoding="utf-8"?>
<!-- Generator: Adobe Illustrator 22.0.1, SVG Export Plug-In . SVG Version: 6.00 Build 0)  -->
<svg version="1.1" id="Layer_1" xmlns="http://www.w3.org/2000/svg" xmlns:xlink="http://www.w3.org/1999/xlink" x="0px" y="0px"
	 viewBox="0 0 400 400" style="enable-background:new 0 0 400 400;" xml:space="preserve" fill="#9C7250">
<path class="st0" d="M43.5,132.7c3.8,0,6.9-3.1,6.9-6.9c0-3.8-3.1-6.9-6.9-6.9c-3.8,0-6.9,3.1-6.9,6.9
	C36.7,129.6,39.7,132.7,43.5,132.7"/>
<path class="st0" d="M357.4,132.7c3.8,0,6.9-3.1,6.9-6.9c0-3.8-3.1-6.9-6.9-6.9c-3.8,0-6.9,3.1-6.9,6.9
	C350.5,129.6,353.6,132.7,357.4,132.7"/>
<path class="st0" d="M127,300.7v-2.8c0.1-0.2,0.1-0.5,0.2-0.7c0.1-0.8,0.1-1.6,0.2-2.4c0.2-3.5,0.5-7.1,0.6-10.6
	c0.2-4.6,0.3-9.1,0.5-13.7c0-0.5,0.1-1,0.2-1.5c0.8-3.6,1.6-7.1,2.4-10.7c0.6-2.9,1-5.7,1.7-8.6c0.6-2.8,1.3-5.6,2-8.4
	c0-0.1,0.1-0.3,0.2-0.4c0.9-1.6,1.7-3.1,2.6-4.7c2.4-4,4.8-8.1,7.3-12.1c0.2-0.3,0.4-0.6,0.7-0.9c1.3-1.4,2.6-2.8,3.9-4.1
	c2-1.9,3.7-4.1,5.1-6.4c2.2-3.6,4.5-7.1,6.3-10.9c0.3-0.6,0.4-1.2,0.3-1.8c-0.3-2.2-0.6-4.3-0.9-6.5c0-0.3,0-0.6,0.2-0.9
	c0.2-0.2,0.3-0.5,0.5-0.8c0.1,0,0.3,0.1,0.4,0.1c0.8,0.2,1.4-0.1,1.7-0.9c0.4-1.3,0.8-2.6,1.1-3.9c0.1-0.2,0.1-0.5,0.1-0.7
	c0-0.5-0.2-0.9-0.6-1.3c-0.2-0.2-0.4-0.4-0.5-0.6c-0.2-0.4-0.5-0.7-1-0.8c-0.3-0.1-0.5-0.2-0.7-0.4c-0.2-0.2-0.4-0.5-0.6-0.8
	c-0.8-1.2-1.8-2.2-2.7-3c-0.2-0.7-0.3-1.3-0.6-1.7c-0.3-0.4-0.6-0.8-0.7-1.3c-0.1-0.4-0.3-0.9-0.5-1.3c-0.1-0.4-0.3-0.6-0.7-0.8
	c-1-0.5-1.8-1.2-2.4-2.1c-0.7-1.1-1.3-2.2-2-3.3c-0.2-0.3-0.4-0.6-0.6-0.9c-1-1.3-1.7-2.7-1.9-4.4c-0.5-4-0.1-3.4-1.7-7.2
	c0,0,0-0.1,0-0.1c-1-2.9-1.4-6-1.8-9c-0.2-1.2-0.3-2.5-0.8-3.6c-0.5-1.1-0.6-2.3-0.4-3.5c0.1-0.6,0-1.1-0.2-1.6
	c-0.4-1.1-0.7-2.3-1-3.4c-0.3-1.2-0.2-2.3,0.1-3.5c0.3-0.7,0.5-1.5,0.4-2.3c0-0.2,0-0.3,0.1-0.5c0.2-0.6,0.2-1.3,0.2-2
	c0-0.2,0-0.4,0.1-0.6c0.3-0.9,0.3-1.8,0-2.7c0-0.1,0-0.1,0-0.2c0.2,0,0.3,0.1,0.4,0.1c0.3-0.7,0.6-1.4,0.9-2.1
	c0.3-0.7,0.6-1.4,0.5-2.2c0-0.3,0-0.6,0.1-0.8c0.2-0.8,0.3-1.5,0-2.3c0.1,0,0.1,0,0.1,0c0.7,0.1,0.9-0.1,0.7-0.8c0-0.1,0-0.1,0-0.2
	c0.1-0.3,0.2-0.6,0.2-0.9c0.1-0.2,0.1-0.5,0.5-0.3c0,0,0.2-0.1,0.2-0.2c0,0,0-0.2-0.1-0.2c-0.1-0.1-0.2-0.1-0.3-0.1
	c0-0.9,0.7-1.5,1.1-2.2c0.2-0.4,0.6-0.8,0.7-1.2c0.2-0.5,0.4-1,0.9-1.4c0.5-0.5,0.7-1.3,0.6-2c-0.1-0.5,0-1,0.2-1.5
	c0.1,0.1,0.1,0.2,0.2,0.3c0.4-0.4,1-1.5,1.1-2.1c-0.2,0.1-0.3,0.1-0.5,0.2c1-1.6,1.1-1.8,0.9-2.1c0.5-0.2,0.9-0.6,1.1-1.1
	c0.2-0.4,0.3-0.8,0.5-1.1c0.5-0.6,0.9-1.2,1.2-1.9c0.4-0.7,1-1.3,1.5-1.9c0.8-0.9,1.6-1.9,2.4-2.8c0.2-0.3,0.6-0.5,0.6-1
	c0-0.2,0.3-0.3,0.4-0.4c0.1-0.1,0.3-0.2,0.4-0.3c0.6-0.5,1.1-1.1,1.7-1.6c1.3-0.9,2.4-2,3.7-2.8c0.1-0.1,0.2-0.2,0.4-0.3
	c0.3-0.2,0.6-0.4,0.9-0.6c1.4-0.7,2.8-1.2,4.3-1.7c0.2-0.1,0.4-0.1,0.5-0.3c0.5-0.5,1.2-0.8,1.8-1.1c1.6-0.6,3-1.5,4.6-2
	c1.1-0.3,2.2-0.9,3.5-0.7c0.2,0,0.5,0,0.7-0.2c0.4-0.3,0.9-0.3,1.4-0.4c0.2,0,0.5-0.1,0.7-0.1c0.6-0.2,1.1-0.2,1.6,0
	c0.5,0.1,1.1,0.1,1.6,0.2c0.9,0.1,1.8,0.1,2.7,0.3c1.1,0.2,2.1,0.2,3.1-0.2c0.3-0.1,0.6-0.2,0.9-0.3c0.8-0.1,1.6-0.2,2.4-0.3
	c0.5-0.1,1-0.2,1.4-0.1c0.8,0.2,1.5,0.2,2.3,0.1c0.4,0,0.8-0.2,1.2-0.1c1,0.1,2,0.2,3,0.3c0.2,0,0.5,0,0.7,0c0.3,0,0.6,0,1,0
	c0.6,0,1.3,0.1,1.9,0c0.5,0,0.9-0.2,1.4-0.3v-0.5c0.1,0,0.2,0,0.3,0c0.7,0.2,1.5,0.3,2.3,0.2c0.5,0,1,0,1.4,0.1
	c0.7,0.1,1.4,0.3,2.1,0.4c0.5,0.1,0.9,0.1,1.2-0.4c0.1-0.2,0.3-0.2,0.3,0.1c-0.2,0.1-0.3,0.3-0.5,0.5c0.7,0.2,1.3,0.4,2,0.5
	c0.8,0.2,1.6,0.3,2.3,0.7c0.3,0.2,0.7,0.3,1.1,0.2c0.4,0,0.8-0.1,1.1,0c0.9,0.2,1.7,0.6,2.6,0.9c0.1,0,0.3,0.2,0.4,0.3
	c0.2,0.2,0.3,0.4,0.5,0.5c0.4,0.2,0.8,0.4,1.1,0.8c0.2,0.3,0.5,0.6,0.8,0.8c0.4,0.3,0.7,0.7,1.1,1c0.3,0.2,0.6,0.5,1,0.7
	c0,0,0,0.2,0,0.4c0.2-0.1,0.3-0.1,0.5-0.1c0.3,0.5,0.4,1,0.8,1.4c0.7,0.6,1,1.6,1.9,2.1c0.1,0,0.1,0.1,0.2,0.2
	c0.2,0.3,0.5,0.5,0.7,0.7c0.5,0.6,1.2,1,1.6,1.8c0.1,0.3,0.4,0.5,0.7,0.8c0.4,0.4,0.8,0.9,1.2,1.3c0.6,0.7,0.8,1.5,1.1,2.3
	c0.2,0.5,0.3,1.1,0.3,1.7c0,0.6-0.1,1.2-0.2,1.7c1.5,1.5,2.7,3.1,3.7,4.9c1,1.8,1.8,3.7,2.5,5.7c0.5,1.5,1.1,3,1.9,4.4
	c0.7,1.2,1.5,2.4,2.3,3.5c0.8,1.2,1.4,2.4,1.5,3.8c0.1,1.4,0.2,2.8,0.3,4.2c0,0.4,0,0.8,0.4,1c0.1,0,0.2,0.2,0.2,0.3
	c0,0.3,0.2,0.3,0.4,0.5c-0.1,0.1-0.2,0.3-0.3,0.4c0.1,0.1,0.2,0.2,0.3,0.2c-0.1,0.1-0.1,0.1-0.1,0.2c0,0.5-0.2,0.9-0.4,1.4
	c-0.3,0.5-0.2,0.9,0.4,1.2c1.3,0.8,2.7,1.6,4,2.4c1.2,0.7,2.4,1.4,3.4,2.4c1.9,2,4.1,3.9,5.7,6.2c0.8,1.2,1.8,2.3,2.6,3.5
	c1.3,2,1,4.5-0.7,6.1c-0.4,0.4-0.9,0.8-1.4,1.2c-1.1,0.7-2.2,1.5-3.4,1.9c-0.5,0.2-1,0.4-1.5,0.6c-0.2,0.1-0.3,0.2-0.4,0.4
	c-0.3,0.8,0,1.5,0.7,2c0.3,0.2,0.6,0.5,0.9,0.8c0.2,0.2,0.4,0.4,0.6,0.6c0.8,0.7,1.2,1.6,1.6,2.4c0.3,0.7,0.4,1.4,0.9,2.1
	c0.1,0.1,0.1,0.4,0.1,0.5c0,0.3,0.1,0.7,0.1,1.1c0,0.5,0,1.1-0.6,1.3c-0.1,0-0.1,0.1-0.2,0.2c-0.3,0.4-0.6,0.8-0.8,1.2
	c-0.1,0.1-0.1,0.2-0.2,0.2c-0.6,0.1-1.1,0.4-1.6,0.9c-0.1,0.1-0.3,0.1-0.4,0.1c-0.5,0.1-1,0-1.4,0.2c-0.7,0.3-1.4,0.5-2.2,0.4
	c-0.3-0.1-0.6,0.1-0.8,0.4c-0.2,0.3-0.1,0.6,0.1,0.8c0.5,0.5,0.6,1.1,0.6,1.7c0,0.3-0.1,0.6-0.2,1c-0.1,0.3,0,0.6,0.3,0.7
	c1.4,0.6,2.3,1.6,2.9,3c0.1,0.3,0.4,0.5,0.6,0.7c0.1,0.1,0.2,0.3,0.2,0.5c0.1,0.7,0.4,1.2,1.1,1.5c0.2,0.1,0.3,0.3,0.3,0.5
	c0.1,0.5,0.2,1,0.3,1.5c0.1,0.4,0.1,0.7,0.2,1.1c0.1,0.5,0.1,1,0.1,1.5c0.1,0.9,0.8,1.8,0.4,2.8c0,0,0,0,0,0.1c0,0.7,0,1.3,0.1,1.9
	c0,0.4,0.1,0.7,0.1,1.1c0,0.3,0,0.7,0,1c0,0.4-0.2,0.9,0,1.3c0.2,0.5,0.1,1.1,0.2,1.6c0,0.4,0.1,0.8,0.2,1.2c0,0.3,0.1,0.6,0.1,0.9
	c0.1,0.9,0.2,1.7,0.4,2.6c0.2,0.8,0.3,1.5,0,2.3c-0.1,0.2-0.1,0.4-0.1,0.6c-0.2,1.1,0.2,2.2-0.2,3.3c0,0,0,0.1,0,0.1
	c0.1,0.9,0.2,1.8,0.3,2.7c0,0.4,0,0.8-0.3,1.2c-0.4,0.4-0.6,0.8-0.6,1.4c0,0.4-0.2,0.7-0.4,1c-0.2,0.3-0.5,0.7-0.6,1.1
	c-0.1,0.6-0.4,1-0.8,1.4c-0.6,0.7-1.5,1.1-1.9,2c-0.1,0.1-0.3,0.2-0.4,0.3c-0.6,0.4-1.4,0.6-1.9,1.1c-0.5,0.4-1,0.7-1.7,0.8
	c-0.7,0.1-1.4,0.3-1.8,0.8c0,0.1-0.1,0.1-0.2,0.1c-1.2,0.3-2.2,1-3.4,1.2c-0.1,0-0.3,0.1-0.4,0.1c-0.4,0.1-0.8,0.2-1.2,0.3
	c-0.7,0.1-1.5,0.2-2.2,0.3c-0.9,0.1-1.9,0.1-2.8-0.1c-0.4-0.1-0.8-0.1-1.2-0.2c-0.7-0.1-1.4-0.3-2.1-0.4c-0.6-0.1-1.2-0.3-2-0.5
	c1.2,2.3,2.4,4.5,3.6,6.7c0.3-0.1,0.6-0.2,0.8-0.3c1.8-0.6,3.5-1.3,5.3-1.9c1.2-0.4,2.4-0.6,3.5,0.1c0.1,0,0.1,0.1,0.2,0.1
	c0.9,0.1,1.2,0.8,1.4,1.5c0.2,0.6,0.4,1.2,0.1,1.8c-0.1,0.1,0,0.3,0,0.5c0,0.6,0,1.2,0,1.8c0,1.1,0.3,2.2,0.9,3.1
	c0.2,0.3,0.3,0.6,0.4,0.9c0.3,1,0.8,1.9,1.6,2.6c0.2,0.2,0.3,0.4,0.5,0.6c0.4,0.7,0.8,1.4,1,2.2c0.1,0.4,0.3,0.7,0.5,1.1
	c0.5,0.8,0.7,1.7,0.8,2.6c0.1,0.7,0.1,1.4,0.3,2.1c0.3,0.8,0.3,1.5,0,2.3c-0.2,0.6-0.6,0.9-1.3,0.7c-0.5-0.2-1-0.3-1.5-0.5
	c-0.5-0.2-1-0.4-1.4-0.8c-0.1-0.1-0.2-0.3-0.4-0.4c-1.3-0.8-2.6-1.7-4-2.5c-0.3-0.2-0.7-0.4-0.9-0.6c-0.6-0.5-1.2-0.8-2-1.1
	c-0.5-0.2-0.9-0.4-1.3-0.6c-0.5-0.2-0.9-0.5-1.6-0.6c0.1,0.3,0.1,0.5,0.2,0.7c0.5,1,1,1.9,1.6,2.8c0.1,0.2,0.3,0.3,0.5,0.4
	c0.5,0.4,1.1,0.7,1.6,1.1c0.1,0.1,0.2,0.2,0.2,0.3c0.1,0.8,0.7,1.1,1.3,1.4c0.8,0.4,1.4,1,2.2,1.5c0,0,0.1,0.1,0.1,0.1
	c0.5,0.9,1.3,1.6,2.1,2.3c0.3,0.3,0.6,0.7,0.9,1.1c0.8,1.1,1.7,2.3,2.5,3.4c0.4,0.5,0.8,1,1.1,1.6c0.5,1.3,0.9,2.7,1.3,4.1
	c0.2,0.7,0.4,1.4,1,2c1.2,1.3,1.7,3,2.1,4.7c0.5,2.3,1,4.5,2.1,6.6c1,2.2,1.4,4.5,1.8,6.9c0.2,1.3,0.3,2.6,0.5,3.9
	c0.3,1.7,0.8,3.3,1.2,5c0.3,1.1,0.4,2.2,0.7,3.3c0.5,1.6,1,3.2,1.6,4.8c0.4,1.3,0.7,2.6,0.7,4c1,2.6,1,9.3,1,11.7
	c0,0-29.6,22.9-72.3,22.9c-47,0-74.6-22.9-74.6-22.9c-0.1-3.2,0.2-10.7,0.1-13.9C127.1,301.4,127,301,127,300.7"/>
<path class="st0" d="M332.8,107.2c11.8-9.9-4.4-24,2.3-29.7c2.7-2.2,6.2-1.8,9.8,2.4c0.6,0.7,1.1,1.6,1.5,2.1
	c-1.2,1.2-2.6,2.7-3.8,4.2l4.6,5.5l9.6-8.1c-1.6-3.1-3.4-5.8-5.8-8.6c-7.5-8.9-16.4-10.2-23.1-4.6c-12.5,10.5,4.5,23.8-2.6,29.8
	c-3.4,2.9-7.3,1.3-10.6-2.6c-0.7-0.8-1.4-1.9-1.9-2.8c1.2-1.2,2.5-2.7,3.9-4.3l-4.6-5.5l-10,8.4c1.5,3.1,3.7,6.3,6.2,9.4
	C315.9,111.9,325.8,113.1,332.8,107.2 M295.7,86.9l3.2-5c-1.1-1-2.4-2.2-3.5-3l-4-24.7l22.1-6c1.2,0.6,2.8,1.3,4.2,1.8l3.2-5
	L304,34.3l-3.2,5c0.8,0.8,1.9,1.9,2.8,2.6l-21.1,6.2l8.7-13.8c1.4,0.7,3,1.4,4.5,1.9l3.2-5l-17.4-10.9l-3.1,5
	c1.4,1.3,3.1,2.8,4.9,4.1l-18.9,30c-1.9-1-4-1.9-5.8-2.6l-3.1,5l17.4,10.9l3.2-5c-1.1-1.2-2.4-2.3-3.6-3.2l9.3-14.7l3,22.7
	c-1-0.5-2.2-1-3.4-1.4l-3.2,5L295.7,86.9z M222.1,34.6l-11-1.6l7.4-10c2.6-3.6,4.5-6.7,6.4-9.7l0.3,0L222.1,34.6z M246.3,58.3
	l1.9-12.7l-7-1.1c-0.6,1.8-1.2,3.4-1.6,5l-10-1.5l2.1-14l7.8,1.2c0,1.3,0,2.8,0.3,4.1l6,0.9l2.2-14.6l-6-0.9c-0.5,1.2-1,2.5-1.5,3.8
	l-7.8-1.2l1.9-12.9l9.6,1.4c-0.1,1.4,0,3.1,0.1,5l6.9,1l1.8-12.2L212,3.6l-0.9,5.8c1.8,0.6,4,1.3,6.1,1.8l-23.8,32.5
	c-1.2-0.1-2.8,0-4,0.1l-0.9,5.8l17.6,2.6l0.9-5.8c-1.2-0.5-2.9-1.1-4.3-1.4l3.8-5.3l14.5,2.2l-0.8,5.7c-1.7-0.1-3.7-0.1-5.2,0
	l-0.9,5.9L246.3,58.3z M170.4,40.8c1,4.3-1.3,7.9-7.4,9.3c-2.1,0.5-3.9,0.8-5,0.9l-3.2-13.3c1-0.3,3.3-0.9,4-1
	C164.8,35.2,169.3,36.1,170.4,40.8 M164.7,20.8c1,4.2-1.5,7.5-7.9,9.1c-1.4,0.3-2.6,0.6-3.7,0.8l-3-12.4c1.6-0.5,3.4-1,5.3-1.4
	C161.2,15.5,163.8,17.3,164.7,20.8 M180.2,38.2c-1.2-4.8-5.2-8.7-11-8.6l0-0.1c4.1-2.9,6.1-7.8,5-12.5c-1.8-7.6-8.6-10.4-18.9-7.9
	c-5.8,1.4-12.4,3.3-16.1,4.2l-5.9,1.4l1.4,5.7c1.9-0.1,4.2-0.3,6.3-0.6l8.4,34.5c-2.1,0.7-4.2,1.5-5.9,2.3l1.4,5.7l6.1-1.5
	c6-1.5,11-2.5,13.9-3.2C179,54.2,181.9,45.1,180.2,38.2 M139,65.9l-7.2-11.8l-5.9,3.6c0.8,2,1.6,4,2.4,5.6l-8,4.9l-18-29.4
	c1.8-1.3,3.5-2.7,4.9-4l-3.1-5L85.3,41.3l3.1,5c1.8-0.7,3.9-1.5,5.8-2.6L112.8,74c-1.8,1.3-3.5,2.7-4.9,4l3.1,5L139,65.9z M104,89.3
	l-9.4-8.7l-4.8,5.2c1.1,1.5,2.2,2.9,3.3,4.1l-6.7,7.3L76,87.6l5.4-5.8c1.1,0.7,2.3,1.5,3.5,2.1l4.1-4.4l-10.8-10L74,73.9
	c0.7,1.1,1.5,2.3,2.3,3.3L71,83l-9.6-8.9l6.7-7.3c1.1,0.8,2.6,1.8,4.1,2.8l4.8-5.2l-9.1-8.4L45.3,80.7l4.3,4
	c1.5-1.1,3.3-2.5,4.9-4.1l26.1,24c-1.4,1.7-2.6,3.6-3.6,5.2l4.3,4L104,89.3z"/>
<path class="st0" d="M394.3,179.5l-0.7-4.2l-20.1,3.5l-0.6-3.5c-0.7-4-0.8-5.9,4.3-9.3l13.4-8.7l-0.8-4.7l-15.3,10.1
	c-2.6,1.8-4.4,2.9-4.2,6.4l-0.1,0c-1.6-5.1-6-8.7-11.5-7.8c-7.8,1.3-10.2,6.9-8.9,14.5l1.9,11L394.3,179.5z M354.5,182l-0.7-4.3
	c-1-5.8-1.4-10.8,5.6-12c5.9-1,8.8,4.3,9.7,9.3l0.8,4.5L354.5,182z M394.9,223.7l0.4-22l-3.7-0.1l-0.3,17.7l-16.7-0.3l0.3-16.1
	l-3.7-0.1l-0.3,16.1l-15.5-0.3l0.3-17l-3.7-0.1l-0.4,21.2L394.9,223.7z M385.9,263.8l5.3-21l-3.6-0.9l-4.2,16.9l-38.4-9.6l-1,4.2
	L385.9,263.8z M370.8,287.3c0.1,2.4-1.7,6.5-3,8.8c-5.4,10.1-15.1,11.8-24.8,6.7c-9.5-5.1-13.5-14.4-8.2-24.3c1.8-3.3,4-6.6,7.3-8.7
	l-3.3-2.3c-2.7,1.9-5.7,6.4-7.3,9.3c-6.3,11.8-2.2,23.6,9.4,29.9c11.8,6.3,23.6,3.4,30.1-8.7c2.3-4.2,3.6-8.3,4-13.1l-19-10.2
	l-6.8,12.6l3.3,1.8l4.7-8.9L370.8,287.3z M308.7,367.9l3.4-3.2l-2.7-13.4l12.9-12.2l8,8.5l15.9-14.9l-2.6-2.7l-12.8,12.1l-11.5-12.2
	l11.6-10.9l-2.6-2.7L316.8,327l-10.6-11.3l12.3-11.5l-2.6-2.7l-17.2,16.2L308.7,367.9z M319.7,336.4l-11.2,10.6l-5.8-28.4l0.1-0.1
	L319.7,336.4z M250.2,392.9l3.9-1.7l-15.4-35.9l0.1,0l30.4,29.5l3.4-1.4l-0.9-42.1l0.1,0l15.4,35.9l3.9-1.7L274,335.5l-5.6,2.4
	l0.5,41.3l-29.6-28.8l-6.1,2.6L250.2,392.9z M204.2,396.6c2.4,0.7,5.8,1.3,10,0.8c6.7-0.7,13.8-5,12.8-13.7
	c-1.4-12.6-21.1-10.5-22.1-19.2c-0.6-5.6,4.1-7.9,8.5-8.4c2.9-0.3,6-0.1,8,0.8l0.3-4c-3.1-0.8-6.5-0.7-8.6-0.5
	c-7.6,0.8-13.2,5.8-12.4,12.7c1.2,11.3,21.1,10.2,22,18.7c0.7,6.1-3.4,9.3-8.7,9.9c-4,0.4-7.1-0.2-9.8-1.5L204.2,396.6z
	 M138.2,389.2l4.2,0.7l6.6-38.5l0.1,0l9.4,41.3l3.6,0.6l22.2-35.8l0.1,0l-6.6,38.5l4.2,0.7l7.4-42.7l-6.1-1l-22.1,34.9l-9.1-40.3
	l-6.5-1.1L138.2,389.2z M121,334.8c8.9,4.9,8.4,15.5,3.9,23.5c-4.4,8.1-13,14.2-22,9.2c-8.9-4.9-8.4-15.5-3.9-23.5
	C103.5,336,112.1,329.9,121,334.8 M95.3,342c-6.3,11.7-5.1,22.8,5.9,28.8c10.9,6,21,1.1,27.5-10.4c5.8-10.2,5.5-22.5-5.9-28.8
	C111.4,325.2,100.9,331.6,95.3,342 M46.8,323.9l5.3,5.4c10.1,10.2,21.7,13.4,32.9,2.4c9-8.9,11.1-19.6,0.1-30.6l-7.6-7.6L46.8,323.9
	z M78,299.1l4.4,4.5c6.8,6.9,9.2,15.6-0.2,24.9c-9.5,9.3-18.6,7.1-27.3-1.6l-2.5-2.5L78,299.1z M19,276.7l2.1,3.8l32.7-18l0.1,0.1
	l-22.3,37l2.8,5.1l38-20.9l-2.1-3.8l-33.4,18.4l-0.1-0.1l22.8-37.7l-2.6-4.7L19,276.7z M7.6,234.4l5.3,21.3l3.6-0.9l-4.3-17.2
	l16.2-4.1l3.9,15.6l3.6-0.9l-3.9-15.6l15-3.8l4.1,16.4l3.6-0.9l-5.2-20.6L7.6,234.4z M49.1,208.4l-0.2-4.3L16.6,206
	c-4.3,0.2-8.1-1.1-8.4-5.9c-0.1-1.2,0.1-2.9,0.6-4.1L5,196.3c-0.4,1.3-0.6,3.1-0.5,4.5c0.4,7.2,5.9,9.9,12.5,9.5L49.1,208.4z
	 M10.2,156.9L7,178.7l3.7,0.5l2.6-17.5l16.5,2.4L27.4,180l3.7,0.5l2.3-15.9l15.3,2.2l-2.5,16.8l3.7,0.5l3.1-21L10.2,156.9z"/>
</svg>
