<?xml version="1.0" encoding="utf-8"?>
<!-- Generator: Adobe Illustrator 25.4.1, SVG Export Plug-In . SVG Version: 6.00 Build 0)  -->
<svg version="1.1" id="Lag_1" xmlns="http://www.w3.org/2000/svg" xmlns:xlink="http://www.w3.org/1999/xlink" x="0px" y="0px"
	 viewBox="0 0 457.7 459.8" style="enable-background:new 0 0 457.7 459.8;" xml:space="preserve">
<g>
	<g>
		<path class="st0" d="M45.6,150.7c4.4,0,8-3.6,8-8c0-4.4-3.6-8-8-8c-4.4,0-8,3.6-8,8C37.6,147.1,41.2,150.7,45.6,150.7"/>
		<path class="st0" d="M412,150.7c4.4,0,8-3.6,8-8c0-4.4-3.6-8-8-8c-4.4,0-8,3.6-8,8C404,147.1,407.5,150.7,412,150.7"/>
		<path class="st0" d="M143.1,346.8v-3.3c0.1-0.3,0.2-0.5,0.2-0.8c0.1-0.9,0.1-1.9,0.2-2.8c0.3-4.1,0.6-8.3,0.7-12.4
			c0.2-5.3,0.4-10.7,0.6-16c0-0.6,0.1-1.1,0.2-1.7c0.9-4.2,1.9-8.3,2.8-12.5c0.7-3.3,1.2-6.7,1.9-10c0.7-3.3,1.5-6.5,2.3-9.8
			c0-0.2,0.1-0.3,0.2-0.5c1-1.8,2-3.7,3-5.5c2.8-4.7,5.6-9.4,8.5-14.1c0.2-0.4,0.5-0.7,0.8-1c1.5-1.6,3-3.2,4.6-4.8
			c2.3-2.3,4.3-4.8,6-7.5c2.6-4.2,5.3-8.3,7.4-12.7c0.3-0.7,0.4-1.4,0.3-2.1c-0.4-2.5-0.7-5.1-1.1-7.6c-0.1-0.4,0-0.7,0.2-1
			c0.2-0.3,0.4-0.6,0.5-0.9c0.2,0.1,0.3,0.1,0.4,0.1c0.9,0.2,1.7-0.1,2-1c0.5-1.5,0.9-3,1.3-4.5c0.1-0.3,0.1-0.5,0.1-0.8
			c0-0.6-0.3-1.1-0.7-1.5c-0.2-0.2-0.4-0.5-0.6-0.8c-0.3-0.5-0.6-0.8-1.2-1c-0.3-0.1-0.6-0.3-0.8-0.5c-0.3-0.3-0.5-0.6-0.7-0.9
			c-1-1.4-2.1-2.6-3.2-3.5c-0.3-0.8-0.4-1.5-0.7-1.9c-0.4-0.5-0.6-0.9-0.8-1.5c-0.1-0.5-0.4-1-0.5-1.5c-0.1-0.4-0.4-0.7-0.8-0.9
			c-1.2-0.6-2.1-1.4-2.8-2.5c-0.8-1.3-1.5-2.6-2.3-3.9c-0.2-0.4-0.4-0.8-0.7-1.1c-1.2-1.5-2-3.2-2.3-5.1c-0.6-4.6-0.1-3.9-1.9-8.4
			c0-0.1,0-0.1,0-0.2c-1.2-3.4-1.6-7-2.1-10.6c-0.2-1.4-0.4-2.9-1-4.2c-0.5-1.3-0.7-2.7-0.5-4c0.1-0.7,0-1.3-0.2-1.9
			c-0.4-1.3-0.9-2.7-1.2-4c-0.4-1.4-0.3-2.7,0.2-4.1c0.3-0.9,0.5-1.7,0.4-2.6c0-0.2,0-0.4,0.1-0.6c0.2-0.7,0.3-1.5,0.2-2.3
			c0-0.2,0-0.5,0.1-0.7c0.3-1.1,0.3-2.1,0-3.2c0-0.1,0-0.1,0-0.2c0.2,0.1,0.4,0.1,0.5,0.1c0.4-0.8,0.7-1.6,1-2.4
			c0.3-0.8,0.7-1.6,0.6-2.5c0-0.3,0.1-0.6,0.1-1c0.2-0.9,0.3-1.8,0.1-2.7c0.1,0,0.1-0.1,0.2-0.1c0.8,0.1,1-0.1,0.8-1
			c0-0.1,0-0.2,0-0.2c0.1-0.3,0.2-0.7,0.3-1c0.1-0.3,0.1-0.6,0.5-0.4c0.1,0,0.2-0.1,0.3-0.2c0-0.1-0.1-0.2-0.1-0.3
			c-0.1-0.1-0.3-0.1-0.4-0.2c0-1.1,0.9-1.7,1.3-2.6c0.2-0.5,0.7-0.9,0.9-1.4c0.2-0.6,0.4-1.2,1-1.6c0.6-0.6,0.9-1.5,0.7-2.4
			c-0.1-0.6,0-1.1,0.2-1.7c0.1,0.1,0.1,0.2,0.2,0.3c0.5-0.5,1.1-1.7,1.3-2.4c-0.2,0.1-0.3,0.1-0.6,0.2c1.1-1.9,1.2-2.1,1-2.5
			c0.6-0.2,1-0.7,1.3-1.3c0.2-0.4,0.3-0.9,0.6-1.3c0.6-0.7,1-1.4,1.4-2.2c0.4-0.9,1.1-1.5,1.8-2.2c1-1.1,1.9-2.2,2.8-3.3
			c0.3-0.3,0.7-0.6,0.7-1.2c0-0.2,0.3-0.4,0.5-0.5c0.1-0.1,0.3-0.2,0.4-0.3c0.7-0.6,1.2-1.3,2-1.8c1.5-1,2.7-2.3,4.3-3.2
			c0.2-0.1,0.3-0.3,0.4-0.4c0.3-0.2,0.7-0.5,1-0.6c1.6-0.8,3.3-1.4,5-1.9c0.2-0.1,0.4-0.2,0.6-0.3c0.6-0.6,1.4-1,2.1-1.3
			c1.8-0.7,3.5-1.8,5.4-2.3c1.3-0.4,2.6-1,4-0.9c0.3,0,0.6-0.1,0.8-0.2c0.5-0.3,1.1-0.4,1.6-0.5c0.3,0,0.6-0.1,0.8-0.2
			c0.6-0.3,1.3-0.2,1.9,0c0.6,0.2,1.2,0.2,1.9,0.2c1.1,0.1,2.1,0.1,3.2,0.4c1.3,0.3,2.4,0.3,3.6-0.3c0.3-0.2,0.7-0.3,1.1-0.3
			c0.9-0.1,1.8-0.3,2.8-0.4c0.5-0.1,1.1-0.2,1.6-0.1c0.9,0.2,1.8,0.2,2.7,0.2c0.5,0,1-0.2,1.4-0.2c1.2,0.1,2.3,0.3,3.5,0.4
			c0.3,0,0.5,0,0.8,0c0.4,0,0.8,0,1.1,0c0.7,0,1.5,0.1,2.2,0.1c0.6,0,1.1-0.3,1.7-0.4v-0.6c0.1,0,0.3,0,0.4,0
			c0.9,0.3,1.8,0.4,2.7,0.3c0.6,0,1.1,0,1.7,0.1c0.8,0.1,1.6,0.3,2.5,0.5c0.6,0.1,1,0.1,1.3-0.5c0.1-0.2,0.3-0.2,0.4,0.1
			c-0.2,0.2-0.4,0.3-0.6,0.5c0.8,0.2,1.6,0.5,2.3,0.6c0.9,0.2,1.9,0.4,2.7,0.8c0.4,0.2,0.8,0.3,1.3,0.3c0.4,0,0.9-0.1,1.3,0
			c1,0.3,2,0.6,3,1c0.2,0.1,0.3,0.2,0.4,0.3c0.2,0.2,0.4,0.5,0.6,0.6c0.4,0.3,0.9,0.5,1.3,0.9c0.3,0.3,0.6,0.6,1,1
			c0.4,0.4,0.9,0.8,1.3,1.1c0.3,0.3,0.7,0.5,1.2,0.9c0,0,0,0.2,0,0.4c0.2-0.1,0.4-0.1,0.6-0.2c0.3,0.6,0.5,1.2,0.9,1.6
			c0.8,0.7,1.2,1.9,2.2,2.4c0.1,0,0.1,0.2,0.2,0.2c0.3,0.3,0.6,0.6,0.9,0.9c0.6,0.7,1.4,1.2,1.8,2.1c0.2,0.4,0.5,0.6,0.8,0.9
			c0.5,0.5,0.9,1,1.4,1.5c0.7,0.8,1,1.8,1.3,2.7c0.2,0.6,0.3,1.3,0.3,1.9c0,0.7-0.2,1.3-0.2,2c1.7,1.8,3.2,3.7,4.3,5.7
			c1.2,2.1,2.2,4.3,2.9,6.6c0.6,1.8,1.3,3.5,2.3,5.1c0.9,1.4,1.8,2.8,2.7,4.1c0.9,1.4,1.6,2.8,1.8,4.5c0.2,1.6,0.2,3.3,0.3,4.9
			c0,0.5,0,0.9,0.5,1.2c0.1,0,0.2,0.2,0.2,0.3c0,0.4,0.3,0.4,0.5,0.5c-0.1,0.2-0.2,0.3-0.3,0.5c0.1,0.1,0.3,0.2,0.4,0.3
			c-0.1,0.1-0.2,0.2-0.2,0.2c0,0.6-0.2,1.1-0.5,1.6c-0.3,0.6-0.2,1,0.5,1.4c1.6,1,3.1,1.9,4.7,2.8c1.4,0.8,2.8,1.6,4,2.8
			c2.2,2.4,4.7,4.5,6.6,7.2c1,1.4,2.1,2.7,3,4.1c1.5,2.3,1.2,5.2-0.9,7.1c-0.5,0.5-1,0.9-1.6,1.3c-1.3,0.9-2.5,1.7-4,2.2
			c-0.6,0.2-1.2,0.4-1.8,0.7c-0.2,0.1-0.4,0.3-0.4,0.5c-0.3,0.9,0,1.8,0.8,2.3c0.4,0.3,0.7,0.6,1,1c0.2,0.2,0.4,0.5,0.7,0.7
			c0.9,0.8,1.4,1.8,1.9,2.8c0.4,0.8,0.5,1.7,1.1,2.4c0.1,0.2,0.1,0.4,0.2,0.6c0.1,0.4,0.1,0.8,0.1,1.2c0,0.6,0,1.3-0.7,1.6
			c-0.1,0-0.2,0.1-0.2,0.2c-0.3,0.5-0.7,0.9-1,1.4c-0.1,0.1-0.1,0.2-0.2,0.2c-0.8,0.1-1.3,0.5-1.8,1c-0.1,0.1-0.3,0.1-0.5,0.1
			c-0.5,0.1-1.1,0-1.6,0.2c-0.8,0.4-1.7,0.6-2.6,0.4c-0.4-0.1-0.7,0.1-0.9,0.4c-0.2,0.4-0.1,0.7,0.1,0.9c0.6,0.5,0.6,1.3,0.7,2
			c0,0.4-0.1,0.8-0.2,1.1c-0.1,0.4-0.1,0.7,0.3,0.8c1.6,0.7,2.7,1.9,3.4,3.5c0.1,0.3,0.4,0.5,0.6,0.8c0.1,0.2,0.3,0.4,0.3,0.5
			c0.1,0.8,0.5,1.5,1.3,1.8c0.3,0.1,0.3,0.3,0.4,0.6c0.1,0.6,0.3,1.2,0.4,1.8c0.1,0.4,0.1,0.9,0.2,1.3c0.1,0.6,0.1,1.2,0.1,1.8
			c0.2,1.1,0.9,2.1,0.5,3.3c0,0,0,0.1,0,0.1c0,0.8,0,1.5,0.1,2.3c0,0.4,0.1,0.9,0.1,1.3c0,0.4,0,0.8,0,1.2c0,0.5-0.2,1.1,0,1.5
			c0.2,0.6,0.2,1.2,0.2,1.9c0,0.5,0.1,0.9,0.2,1.4c0.1,0.3,0.1,0.7,0.2,1c0.2,1,0.3,2,0.5,3c0.2,0.9,0.4,1.8,0.1,2.7
			c-0.1,0.2-0.1,0.5-0.2,0.7c-0.3,1.3,0.2,2.6-0.2,3.9c0,0,0,0.1,0,0.2c0.1,1,0.3,2.1,0.4,3.1c0,0.5,0,1-0.4,1.4
			c-0.5,0.4-0.7,1-0.7,1.6c0,0.5-0.2,0.8-0.5,1.2c-0.3,0.4-0.5,0.8-0.7,1.3c-0.2,0.7-0.5,1.2-0.9,1.7c-0.7,0.8-1.7,1.3-2.2,2.3
			c-0.1,0.1-0.3,0.2-0.5,0.3c-0.7,0.5-1.6,0.7-2.3,1.3c-0.5,0.5-1.2,0.8-2,0.9c-0.8,0.2-1.6,0.3-2.1,1c0,0.1-0.1,0.1-0.2,0.1
			c-1.4,0.3-2.6,1.2-4,1.4c-0.2,0-0.3,0.1-0.5,0.1c-0.5,0.1-0.9,0.3-1.4,0.4c-0.9,0.1-1.7,0.2-2.6,0.3c-1.1,0.1-2.2,0.2-3.3-0.2
			c-0.5-0.1-1-0.2-1.5-0.3c-0.8-0.2-1.7-0.3-2.5-0.5c-0.7-0.2-1.5-0.4-2.3-0.6c1.4,2.7,2.8,5.2,4.2,7.8c0.4-0.1,0.7-0.2,0.9-0.3
			c2.1-0.7,4.1-1.5,6.2-2.2c1.4-0.5,2.8-0.7,4.1,0.1c0.1,0,0.1,0.1,0.2,0.1c1,0.2,1.4,0.9,1.6,1.8c0.2,0.7,0.5,1.4,0.1,2.1
			c-0.1,0.2,0,0.4,0,0.6c0,0.7,0,1.4,0,2.1c0,1.3,0.3,2.5,1,3.7c0.2,0.3,0.4,0.7,0.5,1c0.3,1.2,0.9,2.2,1.8,3.1
			c0.2,0.2,0.4,0.4,0.6,0.7c0.5,0.8,1,1.6,1.2,2.6c0.1,0.4,0.4,0.9,0.6,1.2c0.6,0.9,0.8,2,0.9,3c0.1,0.8,0.1,1.7,0.4,2.4
			c0.3,0.9,0.4,1.8,0,2.7c-0.3,0.7-0.7,1-1.5,0.8c-0.6-0.2-1.2-0.4-1.8-0.6c-0.6-0.2-1.2-0.4-1.6-1c-0.1-0.2-0.3-0.3-0.5-0.5
			c-1.5-1-3.1-2-4.6-2.9c-0.4-0.2-0.8-0.4-1.1-0.7c-0.7-0.6-1.5-1-2.3-1.2c-0.5-0.2-1.1-0.4-1.6-0.7c-0.6-0.3-1.1-0.6-1.8-0.6
			c0.1,0.3,0.1,0.6,0.2,0.8c0.6,1.1,1.2,2.2,1.8,3.3c0.1,0.2,0.4,0.4,0.6,0.5c0.6,0.4,1.3,0.8,1.9,1.3c0.1,0.1,0.3,0.2,0.3,0.4
			c0.1,0.9,0.8,1.2,1.5,1.6c0.9,0.5,1.7,1.2,2.5,1.8c0,0,0.1,0.1,0.1,0.1c0.6,1.1,1.6,1.8,2.4,2.7c0.4,0.4,0.7,0.8,1.1,1.3
			c1,1.3,1.9,2.7,2.9,4c0.4,0.6,1,1.2,1.2,1.8c0.6,1.6,1.1,3.2,1.5,4.8c0.3,0.8,0.5,1.7,1.1,2.4c1.4,1.6,2,3.5,2.5,5.5
			c0.6,2.7,1.2,5.3,2.4,7.8c1.2,2.5,1.7,5.3,2,8c0.2,1.5,0.3,3.1,0.6,4.6c0.4,2,1,3.9,1.5,5.8c0.3,1.3,0.5,2.6,0.9,3.9
			c0.5,1.9,1.2,3.7,1.8,5.6c0.5,1.5,0.8,3.1,0.9,4.7c1.2,3,1.1,10.8,1.2,13.6c0,0-34.5,26.7-84.4,26.7c-54.8,0-87.1-26.7-87.1-26.7
			c-0.1-3.7,0.2-12.5,0.1-16.2C143.2,347.6,143.1,347.2,143.1,346.8"/>
		<path class="st0" d="M383.3,121c13.8-11.5-5.2-28.1,2.7-34.6c3.1-2.6,7.3-2.1,11.4,2.8c0.7,0.8,1.3,1.9,1.7,2.4
			c-1.4,1.4-3,3.2-4.4,4.9l5.4,6.4l11.2-9.4c-1.9-3.6-4-6.7-6.7-10c-8.7-10.4-19.1-11.9-26.9-5.4c-14.6,12.2,5.3,27.8-3.1,34.8
			c-4,3.4-8.6,1.5-12.4-3c-0.8-1-1.7-2.3-2.2-3.3c1.4-1.4,2.9-3.1,4.5-5l-5.4-6.4l-11.7,9.8c1.8,3.6,4.3,7.4,7.3,10.9
			C363.6,126.4,375.1,127.9,383.3,121 M340,97.3l3.7-5.9c-1.3-1.2-2.8-2.6-4.1-3.6L334.9,59l25.8-7c1.4,0.7,3.3,1.5,4.9,2.1l3.7-5.9
			l-19.6-12.4l-3.7,5.9c0.9,1,2.2,2.2,3.3,3l-24.6,7.2l10.2-16.1c1.6,0.8,3.5,1.7,5.2,2.2l3.7-5.9l-20.3-12.8l-3.7,5.8
			c1.6,1.5,3.6,3.3,5.7,4.8L303.5,65c-2.2-1.2-4.7-2.3-6.8-3.1l-3.7,5.8l20.3,12.8l3.7-5.9c-1.2-1.4-2.8-2.7-4.2-3.8l10.8-17.2
			l3.6,26.5c-1.2-0.5-2.6-1.1-4-1.6l-3.7,5.9L340,97.3z M254.1,36.2l-12.8-1.9l8.7-11.7c3-4.2,5.3-7.8,7.5-11.4l0.3,0.1L254.1,36.2z
			 M282.4,63.8l2.2-14.8l-8.2-1.2c-0.7,2.1-1.4,4-1.8,5.9l-11.6-1.7l2.4-16.3l9.1,1.4c0,1.5,0,3.3,0.3,4.8l7,1l2.5-17l-7-1
			c-0.6,1.4-1.2,2.9-1.7,4.5l-9.1-1.4l2.3-15.1l11.2,1.7c-0.1,1.6,0,3.7,0.1,5.8l8,1.2l2.1-14.2l-48-7.2l-1,6.8
			c2.1,0.7,4.7,1.6,7.1,2.1l-27.8,37.9c-1.4-0.1-3.2-0.1-4.6,0.2l-1,6.8l20.5,3.1l1-6.8c-1.4-0.5-3.4-1.3-5-1.7l4.4-6.2l16.9,2.5
			l-1,6.6c-2-0.1-4.3-0.1-6.1,0l-1,6.9L282.4,63.8z M193.8,43.4c1.2,5-1.5,9.2-8.6,10.9c-2.5,0.6-4.6,0.9-5.8,1.1l-3.8-15.6
			c1.1-0.4,3.8-1,4.7-1.2C187.2,36.9,192.4,38,193.8,43.4 M187.1,20.1c1.2,4.9-1.8,8.8-9.2,10.6c-1.6,0.4-3,0.7-4.3,1L170,17.2
			c1.9-0.5,3.9-1.1,6.2-1.7C183,13.9,186.1,16,187.1,20.1 M205.1,40.4c-1.4-5.6-6.1-10.2-12.9-10l0-0.2c4.8-3.3,7.1-9.1,5.8-14.6
			c-2.2-8.9-10-12.1-22.1-9.2c-6.8,1.6-14.5,3.9-18.9,4.9l-6.9,1.7l1.6,6.7c2.2-0.1,4.9-0.3,7.4-0.8l9.8,40.2
			C166.5,60,164,61,162,62l1.6,6.7l7.2-1.7c7-1.7,12.9-3,16.3-3.8C203.7,59.1,207.1,48.5,205.1,40.4 M157.1,72.7L148.7,59l-6.9,4.2
			c1,2.4,1.9,4.7,2.8,6.5l-9.3,5.7l-21-34.3c2.1-1.5,4.1-3.2,5.8-4.7l-3.6-5.9l-22,13.5l3.6,5.8c2.1-0.8,4.6-1.8,6.8-3l21.6,35.3
			c-2.1,1.5-4.1,3.2-5.8,4.7l3.6,5.9L157.1,72.7z M116.2,100l-11-10.2l-5.6,6c1.3,1.8,2.5,3.4,3.9,4.8l-7.9,8.5L83.5,98.1l6.3-6.8
			c1.3,0.8,2.7,1.8,4.1,2.4l4.8-5.2L86,76.9L81.2,82c0.8,1.3,1.7,2.6,2.7,3.9l-6.3,6.8L66.5,82.4l7.8-8.5c1.3,1,3,2.1,4.8,3.3l5.6-6
			l-10.6-9.8L47.7,90l5,4.7c1.8-1.3,3.9-3,5.7-4.7L88.9,118c-1.6,2-3.1,4.2-4.2,6.1l5,4.6L116.2,100z"/>
	</g>
	<g>
		<path class="st0" d="M55.5,186.7l-0.9,4.9l-45.3-8.7l-3.8,19.9L1.3,202L6,177.2L55.5,186.7z"/>
		<path class="st0" d="M50.6,222.3l-0.2,5L0,225.7l0.2-5L50.6,222.3z"/>
		<path class="st0" d="M50.4,243l3.3,24.5l-4.3,0.6l-2.6-19.5l-17.8,2.4l2.5,18.5l-4.3,0.6l-2.5-18.5l-19.3,2.6l2.7,20.4l-4.3,0.6
			l-3.4-25.3L50.4,243z"/>
		<path class="st0" d="M56.9,280.9l4.3,11.2c2.9,7.7,3.1,15.9-5.9,19.3c-6,2.3-10.6,0.9-14-4.5l-0.1,0.1c1.2,6.4-1.2,11.9-7.4,14.3
			c-10.3,3.9-16.6-3.2-20.4-13l-3.6-9.4L56.9,280.9z M15.6,302l1.9,4.9c2.4,6.3,6.8,12.7,14.3,9.9c8.4-3.2,6.5-10.8,3.9-17.6
			l-1.6-4.1L15.6,302z M38.2,293.6l2,5.2c1.9,4.9,5.7,11,13.2,8.1c6.8-2.6,5.4-9.2,3.8-13.2l-2.4-6.4L38.2,293.6z"/>
		<path class="st0" d="M73.6,320.6l2.9,4l-18.1,13.1l14.9,20.7l18.1-13.1l2.9,4l-40.9,29.5l-2.9-4l19.3-13.9l-14.9-20.7l-19.3,13.9
			l-2.9-4L73.6,320.6z"/>
		<path class="st0" d="M116.5,369.3l4.4,3.5l-15.5,52l-4.1-3.2l4.1-14l-20-15.7l-12.6,7.3l-3.8-3L116.5,369.3z M115.5,374.6
			l-25.8,15.1l17.2,13.5L115.5,374.6z"/>
		<path class="st0" d="M138.7,441.1l-4.9-2.2l3.2-53.7l4.8,2.1l-3.5,48.1l33.7-34.8l4.5,2L138.7,441.1z"/>
		<path class="st0" d="M185.8,404.3l24.3,4.3l-0.8,4.3l-19.4-3.4l-3.1,17.7l18.4,3.2l-0.8,4.3l-18.4-3.2l-3.4,19.1l20.3,3.6
			l-0.8,4.3l-25.2-4.4L185.8,404.3z"/>
		<path class="st0" d="M224.6,409.5l13-0.7c8.9-0.5,15,3,15.5,12.3c0.3,6.5-4.4,11.1-10.6,12.2l0,0.1c4.1,0.3,5,2.4,6.8,5.7l9.6,19
			l-5.5,0.3l-8.2-16.6c-3.2-6.3-5.4-6.4-10.2-6.2l-4.1,0.2l1.3,23.7l-5,0.3L224.6,409.5z M230.7,431.5l5.3-0.3
			c5.8-0.3,12.4-2.9,12.1-9.9c-0.4-8.2-6.3-8.4-13.2-8.1l-5.1,0.3L230.7,431.5z"/>
		<path class="st0" d="M266.2,407l7.2-2.7l32.7,35.2l1.9-48l6.7-2.5l17.5,47.3l-4.7,1.7l-15.8-42.6l-0.1,0.1l-1.4,49l-4,1.5
			l-33.5-36l-0.1,0.1l15.8,42.6l-4.7,1.7L266.2,407z"/>
		<path class="st0" d="M345.1,365.7l20.8-18.1l2.8,3.3L354,363.7l11.8,13.6l14-12.2l2.8,3.3l-14,12.2l12.8,14.7l15.4-13.4l2.8,3.3
			l-19.1,16.7l-8.9-10.2l-15.6,13.6l2.6,15.7l-4.1,3.6L345.1,365.7z M349.9,366.7l-0.1,0.1l5.4,33.3l13.5-11.8L349.9,366.7z"/>
		<path class="st0" d="M414.1,321l-5.9,10.1l-3.8-2.2l8.4-14.4l21.7,12.6c-0.6,5.6-2.4,10.3-5.2,15.1c-8,13.8-21.8,16.8-35.3,8.9
			c-13.3-7.7-17.6-21.6-9.8-35.1c1.9-3.3,5.6-8.4,8.8-10.5l3.7,2.8c-3.8,2.3-6.6,6-8.8,9.9c-6.6,11.3-2.2,22.3,8.6,28.6
			c11,6.4,22.4,4.7,29.1-6.8c1.6-2.7,3.9-7.4,3.8-10.2L414.1,321z"/>
		<path class="st0" d="M397.5,289l1.3-4.8l44.4,12.5l5.5-19.5l4.2,1.2l-6.8,24.3L397.5,289z"/>
		<path class="st0" d="M405.7,254.3l1.6-24.7l4.3,0.3l-1.3,19.7l18,1.2l1.2-18.7l4.3,0.3l-1.2,18.7l19.4,1.3l1.3-20.5l4.3,0.3
			l-1.6,25.5L405.7,254.3z"/>
		<path class="st0" d="M406.7,215.3l-2.1-12.8c-1.4-8.8,1.4-15.2,10.5-16.7c6.4-1.1,11.5,3.2,13.3,9.2l0.1,0
			c-0.2-4.1,1.8-5.3,4.9-7.4l17.9-11.6l0.9,5.4l-15.6,10c-5.9,3.9-5.8,6.1-5,10.8l0.7,4.1l23.5-3.8l0.8,4.9L406.7,215.3z M428,206.7
			l-0.9-5.2c-0.9-5.8-4.2-12-11.2-10.9c-8.1,1.3-7.7,7.2-6.6,14l0.8,5.1L428,206.7z"/>
	</g>
</g>
</svg>